<?xml version="1.0" encoding="UTF-8" standalone="no"?>
<svg width="800" height="600" xmlns="http://www.w3.org/2000/svg">
  <defs>
    <linearGradient id="gradient" x1="0%" y1="0%" x2="100%" y2="100%">
      <stop offset="0%" stop-color="#E07A5F" />
      <stop offset="100%" stop-color="#00A1AF" />
    </linearGradient>
  </defs>
  <rect width="100%" height="100%" fill="url(#gradient)" />
  <text x="50%" y="50%" font-family="Arial" font-size="48" text-anchor="middle" fill="white">Clarifying Mask</text>
  <g stroke="white" stroke-width="3" fill="none" transform="translate(400, 300) scale(3)">
    <path d="M6.5 12.5l3 3l7 -7" />
    <path d="M9 11a3 3 0 0 0 -3 -3h-.5a3.5 3.5 0 0 0 -3.5 3.5v.5a3 3 0 0 0 3 3h.5" />
    <path d="M15 11a3 3 0 0 1 3 -3h.5a3.5 3.5 0 0 1 3.5 3.5v.5a3 3 0 0 1 -3 3h-.5" />
  </g>
</svg> 