<?xml version="1.0" encoding="UTF-8" standalone="no"?>
<svg width="800" height="600" xmlns="http://www.w3.org/2000/svg">
  <defs>
    <linearGradient id="gradient" x1="0%" y1="0%" x2="100%" y2="100%">
      <stop offset="0%" stop-color="#E07A5F" />
      <stop offset="100%" stop-color="#D65F40" />
    </linearGradient>
  </defs>
  <rect width="100%" height="100%" fill="url(#gradient)" />
  <text x="50%" y="50%" font-family="Arial" font-size="48" text-anchor="middle" fill="white">Deep Tissue Massage</text>
  <g stroke="white" stroke-width="3" fill="none" transform="translate(400, 300) scale(3)">
    <path d="M4 11a1 1 0 0 1 1 -1h3a1 1 0 0 1 1 1v3a1 1 0 0 1 -1 1h-3a1 1 0 0 1 -1 -1v-3z" />
    <path d="M15 12h-3" />
    <path d="M16 9l-3 3l3 3" />
    <path d="M7 9l-3 3l3 3" />
    <path d="M19 7a2 2 0 0 0 -2 -2h-14a2 2 0 0 0 -2 2v10a2 2 0 0 0 2 2h14a2 2 0 0 0 2 -2v-10z" />
  </g>
</svg> 